<?xml version="1.0" encoding="UTF-8"?>
<!DOCTYPE svg PUBLIC "-//W3C//DTD SVG 1.1//EN" "http://www.w3.org/Graphics/SVG/1.1/DTD/svg11.dtd">
<svg xmlns="http://www.w3.org/2000/svg" version="1.1" width="512px" height="512px" style="shape-rendering:geometricPrecision; text-rendering:geometricPrecision; image-rendering:optimizeQuality; fill-rule:evenodd; clip-rule:evenodd" xmlns:xlink="http://www.w3.org/1999/xlink">
<g><path style="opacity:0.982" fill="#000000" d="M 138.5,-0.5 C 216.833,-0.5 295.167,-0.5 373.5,-0.5C 425.894,7.30632 457.061,37.3063 467,89.5C 467.667,222.5 467.667,355.5 467,488.5C 463.768,501.569 455.601,509.236 442.5,511.5C 437.167,511.5 431.833,511.5 426.5,511.5C 369.811,487.747 312.978,464.08 256,440.5C 198.877,463.701 142.044,487.367 85.5,511.5C 79.1667,511.5 72.8333,511.5 66.5,511.5C 53.8707,507.365 46.3707,498.698 44,485.5C 43.0137,352.478 43.347,219.478 45,86.5C 56.1478,35.8483 87.3145,6.84834 138.5,-0.5 Z M 140.5,51.5 C 217.167,51.3333 293.834,51.5 370.5,52C 394.649,57.816 408.815,72.9826 413,97.5C 413.833,213.835 413.667,330.168 412.5,446.5C 360.085,424.361 307.751,402.028 255.5,379.5C 203.582,401.695 151.582,423.695 99.5,445.5C 98.3333,328.501 98.1667,211.501 99,94.5C 104.569,72.0986 118.403,57.7653 140.5,51.5 Z"/></g>
</svg>
