<?xml version="1.0" encoding="UTF-8"?>
<!DOCTYPE svg PUBLIC "-//W3C//DTD SVG 1.1//EN" "http://www.w3.org/Graphics/SVG/1.1/DTD/svg11.dtd">
<svg xmlns="http://www.w3.org/2000/svg" version="1.1" width="512px" height="512px" style="shape-rendering:geometricPrecision; text-rendering:geometricPrecision; image-rendering:optimizeQuality; fill-rule:evenodd; clip-rule:evenodd" xmlns:xlink="http://www.w3.org/1999/xlink">
<g><path style="opacity:0.984" fill="#000000" d="M 13.5,-0.5 C 20.1667,-0.5 26.8333,-0.5 33.5,-0.5C 75.455,6.94207 104.955,30.2754 122,69.5C 126.438,82.1263 128.938,95.1263 129.5,108.5C 252.167,108.333 374.834,108.5 497.5,109C 504.682,111.017 509.348,115.517 511.5,122.5C 511.5,126.833 511.5,131.167 511.5,135.5C 506.293,159.024 501.126,182.691 496,206.5C 489.348,219.707 479.181,223.207 465.5,217C 457.524,211.076 454.691,203.243 457,193.5C 459.977,178.78 463.144,164.114 466.5,149.5C 355.835,148.5 245.169,148.167 134.5,148.5C 140.167,203.167 145.833,257.834 151.5,312.5C 234.522,312.975 317.522,312.475 400.5,311C 414.694,307.486 425.861,299.653 434,287.5C 440.692,268.716 452.859,263.883 470.5,273C 476.817,280.411 478.317,288.578 475,297.5C 460.932,327.231 437.765,345.398 405.5,352C 315.833,352.333 226.167,352.667 136.5,353C 124.5,354.333 117.833,361 116.5,373C 117.833,385 124.5,391.667 136.5,393C 227.5,393.333 318.5,393.667 409.5,394C 435.333,399.833 451.167,415.667 457,441.5C 460.249,478.05 444.416,501.384 409.5,511.5C 402.167,511.5 394.833,511.5 387.5,511.5C 349.129,499.461 333.796,473.461 341.5,433.5C 313.5,433.5 285.5,433.5 257.5,433.5C 265.204,473.461 249.871,499.461 211.5,511.5C 204.167,511.5 196.833,511.5 189.5,511.5C 151.129,499.461 135.796,473.461 143.5,433.5C 113.564,435.289 92.3973,422.622 80,395.5C 70.2449,360.908 80.7449,334.574 111.5,316.5C 103.413,245.885 95.5798,175.218 88,104.5C 84.6151,73.8871 68.4485,53.3871 39.5,43C 29.8256,41.3332 20.159,39.6666 10.5,38C 5.07934,35.292 1.41268,31.1253 -0.5,25.5C -0.5,21.5 -0.5,17.5 -0.5,13.5C 1.83333,6.5 6.5,1.83333 13.5,-0.5 Z M 195.5,434.5 C 206.599,432.794 214.099,437.128 218,447.5C 220.199,458.606 216.032,466.106 205.5,470C 194.394,472.199 186.894,468.032 183,457.5C 180.928,446.303 185.095,438.637 195.5,434.5 Z M 393.5,434.5 C 404.599,432.794 412.099,437.128 416,447.5C 418.199,458.606 414.032,466.106 403.5,470C 392.394,472.199 384.894,468.032 381,457.5C 378.928,446.303 383.095,438.637 393.5,434.5 Z"/></g>
</svg>
