<?xml version="1.0" encoding="UTF-8"?>
<!DOCTYPE svg PUBLIC "-//W3C//DTD SVG 1.1//EN" "http://www.w3.org/Graphics/SVG/1.1/DTD/svg11.dtd">
<svg xmlns="http://www.w3.org/2000/svg" version="1.1" width="512px" height="512px" style="shape-rendering:geometricPrecision; text-rendering:geometricPrecision; image-rendering:optimizeQuality; fill-rule:evenodd; clip-rule:evenodd" xmlns:xlink="http://www.w3.org/1999/xlink">
<g><path style="opacity:0.989" fill="#000000" d="M 151.5,-0.5 C 157.833,-0.5 164.167,-0.5 170.5,-0.5C 177.363,1.82197 183.696,5.32197 189.5,10C 262.333,82.8333 335.167,155.667 408,228.5C 421.247,248.54 420.247,267.874 405,286.5C 332.194,358.306 259.694,430.473 187.5,503C 182.288,506.939 176.621,509.773 170.5,511.5C 164.167,511.5 157.833,511.5 151.5,511.5C 145.876,509.857 140.542,507.357 135.5,504C 123.333,493.167 111.833,481.667 101,469.5C 90.3452,451.103 91.3452,433.436 104,416.5C 157.68,362.986 211.18,309.32 264.5,255.5C 211.18,201.68 157.68,148.014 104,94.5C 91.8637,78.3949 90.5303,61.3949 100,43.5C 111.137,31.3624 122.637,19.5291 134.5,8C 139.712,4.06067 145.379,1.22734 151.5,-0.5 Z"/></g>
</svg>
