<?xml version="1.0" encoding="UTF-8"?>
<!DOCTYPE svg PUBLIC "-//W3C//DTD SVG 1.1//EN" "http://www.w3.org/Graphics/SVG/1.1/DTD/svg11.dtd">
<svg xmlns="http://www.w3.org/2000/svg" version="1.1" width="128px" height="128px" style="shape-rendering:geometricPrecision; text-rendering:geometricPrecision; image-rendering:optimizeQuality; fill-rule:evenodd; clip-rule:evenodd" xmlns:xlink="http://www.w3.org/1999/xlink">
<g><path style="opacity:0.921" fill="#000000" d="M 15.5,15.5 C 47.5017,15.3334 79.5017,15.5 111.5,16C 114,17.1667 115.833,19 117,21.5C 117.854,25.6251 117.52,29.6251 116,33.5C 103.333,47.5 90.6667,61.5 78,75.5C 77.6667,83.8333 77.3333,92.1667 77,100.5C 70.1667,106 63.3333,111.5 56.5,117C 54.2305,117.758 52.0639,117.591 50,116.5C 49.6667,102.833 49.3333,89.1667 49,75.5C 35.6285,61.1305 22.6285,46.4639 10,31.5C 8.01647,24.6603 9.8498,19.3269 15.5,15.5 Z M 20.5,23.5 C 49.1686,23.3334 77.8353,23.5 106.5,24C 107.516,24.5194 108.182,25.3527 108.5,26.5C 96.2563,41.584 83.423,56.2507 70,70.5C 69.8317,78.8532 69.3317,87.1866 68.5,95.5C 65.1667,98.1667 61.8333,100.833 58.5,103.5C 57.6676,92.5151 57.1676,81.5151 57,70.5C 43.577,56.2507 30.7437,41.584 18.5,26.5C 18.9424,25.2613 19.6091,24.2613 20.5,23.5 Z"/></g>
</svg>
