<?xml version="1.0" encoding="UTF-8"?>
<!DOCTYPE svg PUBLIC "-//W3C//DTD SVG 1.1//EN" "http://www.w3.org/Graphics/SVG/1.1/DTD/svg11.dtd">
<svg xmlns="http://www.w3.org/2000/svg" version="1.1" width="512px" height="512px" style="shape-rendering:geometricPrecision; text-rendering:geometricPrecision; image-rendering:optimizeQuality; fill-rule:evenodd; clip-rule:evenodd" xmlns:xlink="http://www.w3.org/1999/xlink">
<g><path style="opacity:0.981" fill="#000000" d="M 242.5,-0.5 C 251.167,-0.5 259.833,-0.5 268.5,-0.5C 283.576,2.36838 297.243,8.53504 309.5,18C 371.474,73.5835 432.974,129.75 494,186.5C 502.869,198.566 508.703,211.899 511.5,226.5C 511.5,296.5 511.5,366.5 511.5,436.5C 503.878,476.786 480.212,501.786 440.5,511.5C 317.5,511.5 194.5,511.5 71.5,511.5C 32.5059,502.506 8.50588,478.506 -0.5,439.5C -0.5,368.5 -0.5,297.5 -0.5,226.5C 3.6561,204.035 14.6561,185.535 32.5,171C 88.8333,120 145.167,69 201.5,18C 213.757,8.53504 227.424,2.36838 242.5,-0.5 Z M 251.5,52.5 C 260.509,51.9304 268.509,54.4304 275.5,60C 333.3,112.131 390.8,164.631 448,217.5C 452.374,223.914 455.374,230.914 457,238.5C 457.667,303.167 457.667,367.833 457,432.5C 454.469,447.363 445.969,456.863 431.5,461C 313.5,461.667 195.5,461.667 77.5,461C 64.3421,457.175 55.8421,448.675 52,435.5C 51.3333,367.833 51.3333,300.167 52,232.5C 52.7394,228.615 54.0728,224.948 56,221.5C 113.149,168.688 170.649,116.188 228.5,64C 235.17,57.9985 242.836,54.1651 251.5,52.5 Z"/></g>
</svg>
