<?xml version="1.0" encoding="UTF-8"?>
<!DOCTYPE svg PUBLIC "-//W3C//DTD SVG 1.1//EN" "http://www.w3.org/Graphics/SVG/1.1/DTD/svg11.dtd">
<svg xmlns="http://www.w3.org/2000/svg" version="1.1" width="512px" height="512px" style="shape-rendering:geometricPrecision; text-rendering:geometricPrecision; image-rendering:optimizeQuality; fill-rule:evenodd; clip-rule:evenodd" xmlns:xlink="http://www.w3.org/1999/xlink">
<g><path style="opacity:0.99" fill="#000000" d="M 234.5,25.5 C 285.055,23.8525 323.222,44.5191 349,87.5C 372.272,138.26 365.606,184.593 329,226.5C 292.619,259.912 250.786,269.078 203.5,254C 160.496,236.323 135.329,204.49 128,158.5C 123.814,106.704 143.647,67.2043 187.5,40C 202.379,32.2035 218.046,27.3702 234.5,25.5 Z"/></g>
<g><path style="opacity:0.984" fill="#000000" d="M 388.5,260.5 C 433.103,258.203 463.937,277.536 481,318.5C 491.177,354.299 483.01,385.132 456.5,411C 436.146,427.447 412.813,434.447 386.5,432C 369.833,448.667 353.167,465.333 336.5,482C 335.167,482.667 333.833,483.333 332.5,484C 312.898,485.63 293.232,485.963 273.5,485C 267.075,483.573 262.908,479.74 261,473.5C 260.333,453.833 260.333,434.167 261,414.5C 261.667,413.167 262.333,411.833 263,410.5C 280,393.5 297,376.5 314,359.5C 310.299,316.906 327.466,286.073 365.5,267C 373.092,264.074 380.759,261.907 388.5,260.5 Z M 395.5,323.5 C 410.756,323.465 419.756,330.965 422.5,346C 419.943,362.773 410.277,370.106 393.5,368C 378.233,361.203 373.733,350.037 380,334.5C 383.962,329.023 389.129,325.356 395.5,323.5 Z"/></g>
<g><path style="opacity:0.987" fill="#000000" d="M 227.5,278.5 C 255.668,277.844 283.668,279.677 311.5,284C 311.957,284.414 312.291,284.914 312.5,285.5C 299.049,305.36 292.549,327.36 293,351.5C 278.333,366.167 263.667,380.833 249,395.5C 243.231,402.806 240.231,411.14 240,420.5C 239.5,435.163 239.333,449.83 239.5,464.5C 177.472,464.974 115.472,464.474 53.5,463C 37.7974,458.782 28.6308,448.615 26,432.5C 17.7419,389.582 30.5752,354.749 64.5,328C 97.1733,305.657 133.173,291.324 172.5,285C 190.877,281.904 209.21,279.737 227.5,278.5 Z"/></g>
</svg>
