<?xml version="1.0" encoding="UTF-8"?>
<!DOCTYPE svg PUBLIC "-//W3C//DTD SVG 1.1//EN" "http://www.w3.org/Graphics/SVG/1.1/DTD/svg11.dtd">
<svg xmlns="http://www.w3.org/2000/svg" version="1.1" width="512px" height="512px" style="shape-rendering:geometricPrecision; text-rendering:geometricPrecision; image-rendering:optimizeQuality; fill-rule:evenodd; clip-rule:evenodd" xmlns:xlink="http://www.w3.org/1999/xlink">
<g><path style="opacity:0.99" fill="#000000" d="M 224.5,16.5 C 273.65,13.987 310.817,33.6536 336,75.5C 355.74,117.547 352.74,157.88 327,196.5C 296.006,234.167 256.506,248 208.5,238C 161.213,223.711 133.379,192.211 125,143.5C 120.993,94.6831 139.493,57.1831 180.5,31C 194.465,23.6223 209.131,18.789 224.5,16.5 Z"/></g>
<g><path style="opacity:0.965" fill="#000000" d="M 330.5,237.5 C 347.503,237.333 364.503,237.5 381.5,238C 396.863,239.598 409.697,246.098 420,257.5C 424.561,264.481 424.561,271.481 420,278.5C 414.125,284.339 407.292,285.839 399.5,283C 395.833,280 392.167,277 388.5,274C 385.637,272.601 382.637,271.601 379.5,271C 363.833,270.333 348.167,270.333 332.5,271C 321.881,272.951 315.048,279.118 312,289.5C 311.333,340.5 311.333,391.5 312,442.5C 314.833,452 321,458.167 330.5,461C 347.5,461.667 364.5,461.667 381.5,461C 384.618,459.941 387.618,458.608 390.5,457C 400.296,445.223 410.462,444.723 421,455.5C 424.526,462.02 424.193,468.353 420,474.5C 411.772,483.864 401.605,490.031 389.5,493C 368.876,494.607 348.21,494.941 327.5,494C 303.148,489.313 287.315,475.146 280,451.5C 278.854,423.205 278.354,394.872 278.5,366.5C 278.354,338.128 278.854,309.795 280,281.5C 287.413,255.915 304.246,241.248 330.5,237.5 Z"/></g>
<g><path style="opacity:0.99" fill="#000000" d="M 217.5,286.5 C 227.5,286.5 237.5,286.5 247.5,286.5C 247.333,340.501 247.5,394.501 248,448.5C 249.599,459.796 253.099,470.463 258.5,480.5C 191.169,481.667 123.836,481.833 56.5,481C 41.1093,477.276 31.276,467.776 27,452.5C 26.0286,419.452 26.3619,386.452 28,353.5C 30.805,345.713 35.6383,339.547 42.5,335C 97.3559,305.876 155.689,289.709 217.5,286.5 Z"/></g>
<g><path style="opacity:0.966" fill="#000000" d="M 419.5,307.5 C 425.105,306.908 430.439,307.741 435.5,310C 451,325.5 466.5,341 482,356.5C 485.333,362.833 485.333,369.167 482,375.5C 466.167,391.333 450.333,407.167 434.5,423C 420.163,428.332 411.497,423.498 408.5,408.5C 408.953,404.393 410.453,400.726 413,397.5C 417.833,392.667 422.667,387.833 427.5,383C 400.167,382.667 372.833,382.333 345.5,382C 334.311,376.332 331.478,367.832 337,356.5C 339.823,353.175 343.323,351.008 347.5,350C 374.167,349.667 400.833,349.333 427.5,349C 422.333,343.833 417.167,338.667 412,333.5C 406.499,322.495 408.999,313.829 419.5,307.5 Z"/></g>
</svg>
