<?xml version="1.0" encoding="UTF-8"?>
<!DOCTYPE svg PUBLIC "-//W3C//DTD SVG 1.1//EN" "http://www.w3.org/Graphics/SVG/1.1/DTD/svg11.dtd">
<svg xmlns="http://www.w3.org/2000/svg" version="1.1" width="512px" height="512px" style="shape-rendering:geometricPrecision; text-rendering:geometricPrecision; image-rendering:optimizeQuality; fill-rule:evenodd; clip-rule:evenodd" xmlns:xlink="http://www.w3.org/1999/xlink">
<g><path style="opacity:0.997" fill="#000000" d="M 29.5,-0.5 C 84.5,-0.5 139.5,-0.5 194.5,-0.5C 209.483,4.31735 219.317,14.3174 224,29.5C 224.667,84.5 224.667,139.5 224,194.5C 219.5,209.667 209.667,219.5 194.5,224C 139.5,224.667 84.5,224.667 29.5,224C 14.3174,219.317 4.31735,209.483 -0.5,194.5C -0.5,139.5 -0.5,84.5 -0.5,29.5C 4.5,14.5 14.5,4.5 29.5,-0.5 Z"/></g>
<g><path style="opacity:0.997" fill="#000000" d="M 316.5,-0.5 C 371.5,-0.5 426.5,-0.5 481.5,-0.5C 496.5,4.5 506.5,14.5 511.5,29.5C 511.5,84.5 511.5,139.5 511.5,194.5C 506.683,209.483 496.683,219.317 481.5,224C 426.5,224.667 371.5,224.667 316.5,224C 301.333,219.5 291.5,209.667 287,194.5C 286.333,139.5 286.333,84.5 287,29.5C 291.683,14.3174 301.517,4.31735 316.5,-0.5 Z"/></g>
<g><path style="opacity:0.997" fill="#000000" d="M 194.5,511.5 C 139.5,511.5 84.5,511.5 29.5,511.5C 14.5,506.5 4.5,496.5 -0.5,481.5C -0.5,426.5 -0.5,371.5 -0.5,316.5C 4.31735,301.517 14.3174,291.683 29.5,287C 84.5,286.333 139.5,286.333 194.5,287C 209.667,291.5 219.5,301.333 224,316.5C 224.667,371.5 224.667,426.5 224,481.5C 219.317,496.683 209.483,506.683 194.5,511.5 Z"/></g>
<g><path style="opacity:0.997" fill="#000000" d="M 511.5,316.5 C 511.5,371.5 511.5,426.5 511.5,481.5C 506.5,496.5 496.5,506.5 481.5,511.5C 426.5,511.5 371.5,511.5 316.5,511.5C 301.517,506.683 291.683,496.683 287,481.5C 286.333,426.5 286.333,371.5 287,316.5C 291.5,301.333 301.333,291.5 316.5,287C 371.5,286.333 426.5,286.333 481.5,287C 496.683,291.683 506.683,301.517 511.5,316.5 Z"/></g>
</svg>
