<?xml version="1.0" encoding="UTF-8"?>
<!DOCTYPE svg PUBLIC "-//W3C//DTD SVG 1.1//EN" "http://www.w3.org/Graphics/SVG/1.1/DTD/svg11.dtd">
<svg xmlns="http://www.w3.org/2000/svg" version="1.1" width="512px" height="512px" style="shape-rendering:geometricPrecision; text-rendering:geometricPrecision; image-rendering:optimizeQuality; fill-rule:evenodd; clip-rule:evenodd" xmlns:xlink="http://www.w3.org/1999/xlink">
<g><path style="opacity:0.958" fill="#000000" d="M 289.5,19.5 C 368.45,20.0427 427.95,54.0427 468,121.5C 484.974,152.706 492.641,186.04 491,221.5C 489.878,223.624 488.378,225.457 486.5,227C 422.558,228.656 358.558,228.989 294.5,228C 288.667,226.167 284.833,222.333 283,216.5C 282.333,153.5 282.333,90.5 283,27.5C 284.277,24.0618 286.443,21.3951 289.5,19.5 Z M 307.5,44.5 C 370.646,51.1378 417.48,82.1378 448,137.5C 458.331,158.326 464.497,180.326 466.5,203.5C 413.5,203.5 360.5,203.5 307.5,203.5C 307.5,150.5 307.5,97.5 307.5,44.5 Z"/></g>
<g><path style="opacity:0.955" fill="#000000" d="M 222.5,60.5 C 228.593,60.1392 234.593,60.6392 240.5,62C 244.165,63.668 246.332,66.5013 247,70.5C 247.5,134.832 247.667,199.166 247.5,263.5C 311.834,263.333 376.168,263.5 440.5,264C 445.667,265.167 448.833,268.333 450,273.5C 448.596,357.175 412.43,420.675 341.5,464C 291.649,491.308 238.982,498.641 183.5,486C 113.848,466.93 64.3476,424.43 35,358.5C 5.74062,278.402 17.074,204.735 69,137.5C 109.589,90.9554 160.756,65.2888 222.5,60.5 Z M 212.5,86.5 C 215.833,86.5 219.167,86.5 222.5,86.5C 222.333,150.168 222.5,213.834 223,277.5C 225.167,282.333 228.667,285.833 233.5,288C 297.166,288.5 360.832,288.667 424.5,288.5C 418.422,354.193 387.755,404.693 332.5,440C 266.699,476.622 201.032,476.289 135.5,439C 66.3666,392.545 36.8666,327.712 47,244.5C 60.2156,178.517 97.0489,131.017 157.5,102C 175.299,94.4708 193.632,89.3041 212.5,86.5 Z"/></g>
</svg>
