<?xml version="1.0" encoding="UTF-8"?>
<!DOCTYPE svg PUBLIC "-//W3C//DTD SVG 1.1//EN" "http://www.w3.org/Graphics/SVG/1.1/DTD/svg11.dtd">
<svg xmlns="http://www.w3.org/2000/svg" version="1.1" width="128px" height="128px" style="shape-rendering:geometricPrecision; text-rendering:geometricPrecision; image-rendering:optimizeQuality; fill-rule:evenodd; clip-rule:evenodd" xmlns:xlink="http://www.w3.org/1999/xlink">
<g><path style="opacity:0.919" fill="#000000" d="M 43.5,-0.5 C 50.1667,-0.5 56.8333,-0.5 63.5,-0.5C 92.2634,7.99194 106.097,27.3253 105,57.5C 103.849,67.2971 100.349,76.1304 94.5,84C 103.587,95.091 113.421,105.591 124,115.5C 126.34,119.948 125.84,123.948 122.5,127.5C 119.833,127.5 117.167,127.5 114.5,127.5C 103.827,116.494 93.1605,105.494 82.5,94.5C 62.7344,106.658 43.0677,106.491 23.5,94C 2.8433,77.5533 -3.32337,56.72 5,31.5C 12.874,14.7867 25.7073,4.12004 43.5,-0.5 Z M 48.5,13.5 C 73.4698,13.9631 87.8031,26.4631 91.5,51C 87.6342,77.5987 72.3008,89.932 45.5,88C 27.2585,82.5931 17.2585,70.4264 15.5,51.5C 17.3481,30.6647 28.3481,17.9981 48.5,13.5 Z"/></g>
</svg>
